<?xml version="1.0" encoding="UTF-8"?><svg id="uuid-4c2696d3-36be-47df-b10b-48017e537d64" xmlns="http://www.w3.org/2000/svg" xmlns:xlink="http://www.w3.org/1999/xlink" viewBox="0 0 504 504"><defs><linearGradient id="uuid-eb5dfc36-5229-4017-8508-3f342eea1863" x1="44.39" y1="459.61" x2="459.61" y2="44.39" gradientUnits="userSpaceOnUse"><stop offset="0" stop-color="#0d79c9"/><stop offset=".2" stop-color="#0e6fbf"/><stop offset=".54" stop-color="#1156a6"/><stop offset=".96" stop-color="#172d7d"/><stop offset="1" stop-color="#182979"/></linearGradient></defs><g id="uuid-447b1847-cd74-41ba-ad8a-7d0817a5eaa2"><rect id="uuid-599959af-b414-4fdf-942e-3476ec3caeb4" width="504" height="504" rx="151.55" ry="151.55" fill="url(#uuid-eb5dfc36-5229-4017-8508-3f342eea1863)"/><path d="M245.52,174.67c-18.99.62-30.43-3.61-31.79-4.4-3.22-1.85-4.32-4.45-3.48-8.02.48-2.07,1.41-3.92,2.51-5.68,1.98-3.22,4.45-6.04,7.23-8.64,7.14-6.61,15.07-12.07,23.49-16.83,13.35-7.53,27.41-13.48,42.21-17.54,7.01-1.94,14.14-3.13,21.46-3.17,4.14-.04,8.24.09,12.25,1.32,1.54.48,3.04,1.1,4.45,1.94,1.63.97,2.91,2.25,3.83,3.88,1.5,2.56,1.59,5.2.35,7.89-.88,1.85-2.07,3.53-3.57,4.94-1.76,1.72-3.7,3.26-5.82,4.54-2.2,1.37-4.41,2.64-6.65,3.92-.44.26-.93.44-1.45.57-.22.04-.66-.09-.79-.26-.13-.18,0-.57.13-.84.09-.26.35-.44.57-.62,2.73-2.29,5.24-4.8,7.58-7.49,1.23-1.41,2.29-2.95,3.13-4.63.35-.71.66-1.41.88-2.16.57-1.85.04-3.13-1.72-4.01-1.67-.84-3.48-1.1-5.29-1.32-3.26-.44-6.48-.09-9.69.31-14.41,1.89-27.85,6.92-40.58,13.75-6.17,3.3-12.21,6.79-18.2,10.35-5.11,3.04-9.91,6.52-14.59,10.27-2.91,2.34-5.46,4.98-7.67,7.98-.18.26-.35.53-.57.88.53.18.93.31,1.37.44,3.61,1.06,7.31,1.45,11.06,1.72,9.17.62,18.33.48,27.5.26,4.36-.09,8.72-.22,13.09-.53,4.05-.26,8.06-.84,12.07-1.32,5.16-.66,10.27-1.5,15.42-1.85,2.16-.13,4.36-.44,6.52-.62,3.88-.35,7.76-.22,11.63.04,4.98.35,9.87,1.06,14.72,2.29,3.48.88,6.83,2.25,9.96,4.01,3.04,1.67,5.64,3.88,7.76,6.61,2.29,2.91,3.7,6.21,3.79,9.91.09,2.69-.26,5.33-.84,7.98-1.19,5.29-3.39,10.13-6.12,14.76-2.47,4.19-5.38,8.06-8.64,11.72-12.91,14.45-27.85,26.39-44.28,36.57-9.65,5.95-19.61,11.24-30.1,15.55-.84.35-1.41.93-1.89,1.72-19.04,32.65-38.73,64.86-58.6,96.98-4.89,7.93-10.09,15.64-15.16,23.44-.4.57-.88,1.15-1.41,1.67-.22.26-.57.44-.88.57-.84.31-1.63-.31-1.54-1.19,0-.35.18-.75.31-1.1,2.03-5.33,4.49-10.49,7.05-15.6,7.67-15.29,15.29-30.58,23.09-45.78,8.77-17.01,18.95-35.47,28.29-52.17h0c-.49.06-.73.15-2.46.74-.26.09-2.08.7-2.11.71-14.26,4.93-25.05,8.56-39.49,12.87-8.86,2.6-17.89,4.8-26.97,6.57-6.96,1.37-13.92,1.32-20.89-.09-1.98-.44-3.83-1.23-5.51-2.38-3.17-2.12-4.76-5.2-5.07-8.94-.26-3.04.44-5.95,1.41-8.81,1.81-5.33,4.49-10.18,8.02-14.54,5.6-6.96,11.68-13.48,18.29-19.52,1.59-1.45,3.35-2.73,5.02-4.05.4-.35.88-.57,1.37-.79.4-.18.71.13.57.57-.04.22-.13.4-.26.57-.66,1.01-1.23,2.07-1.94,3.04-2.86,3.92-5.77,7.8-8.72,11.68-3.97,5.2-7.62,10.58-11.02,16.17-1.72,2.91-3.3,5.9-4.32,9.17-.44,1.45-.75,2.91-.75,4.45-.04,1.59.66,2.78,2.03,3.57,1.76,1.01,3.61,1.54,5.64,1.54,5.02,0,9.91-.62,14.81-1.59,10.71-2.16,21.11-5.51,31.37-9.21,17.41-6.3,34.5-13.48,51.2-21.5,1.1-.53,1.89-1.23,2.51-2.29,6.12-10.44,12.21-20.84,18.77-31.02,4.85-7.53,9.87-14.94,15.42-21.99,2.03-2.56,4.23-5.02,6.7-7.18.08-.07.16-.14.24-.21,1.59-1.36,2.63-.75,2.27,1.31h0c-.26,1.63-.62,3.26-1.06,4.85-1.37,4.67-3.39,9.03-5.46,13.4-4.63,9.82-10.4,20.37-15.71,29.93-.17.31.17.65.48.48,7.47-4.05,15.6-9.09,22.5-13.88,4.32-3,8.55-6.12,12.69-9.34,4.49-3.48,8.33-7.71,12.21-11.85,3-3.17,5.95-6.39,8.55-9.91,2.12-2.91,3.92-5.95,5.38-9.21,1.23-2.82,1.76-5.77,1.32-8.86-.22-1.54-.88-2.82-1.94-3.92-1.15-1.15-2.51-1.98-4.05-2.6-3.44-1.41-7.05-2.25-10.71-2.73-4.67-.62-9.39-.93-14.1-.97-3.61,0-7.18.4-10.75.84-16.35,1.94-32.12,6.52-47.72,11.63-23.05,7.58-44.81,18.02-65.61,30.45-14.06,8.42-27.54,17.67-40.41,27.76-1.37,1.1-2.82,2.12-4.23,3.17-.44.35-.93.62-1.54.79.09-.22.18-.53.31-.71.57-.75,1.1-1.54,1.76-2.25,15.55-16.61,33.31-30.58,52.44-42.83,14.81-9.45,31.06-18.26,47.35-25.25.44-.19.3-.8-.18-.84" fill="#fff"/><path d="M397.72,310.24h0c2.07,5.59,6.48,10,12.07,12.07h0c1.6.59,1.6,2.86,0,3.45h0c-5.59,2.07-10,6.48-12.07,12.07h0c-.59,1.6-2.86,1.6-3.45,0h0c-2.07-5.59-6.48-10-12.07-12.07h0c-1.6-.59-1.6-2.86,0-3.45h0c5.59-2.07,10-6.48,12.07-12.07h0c.59-1.6,2.86-1.6,3.45,0Z" fill="#fff"/><path d="M109.73,166.2h0c2.07,5.59,6.48,10,12.07,12.07h0c1.6.59,1.6,2.86,0,3.45h0c-5.59,2.07-10,6.48-12.07,12.07h0c-.59,1.6-2.86,1.6-3.45,0h0c-2.07-5.59-6.48-10-12.07-12.07h0c-1.6-.59-1.6-2.86,0-3.45h0c5.59-2.07,10-6.48,12.07-12.07h0c.59-1.6,2.86-1.6,3.45,0Z" fill="#fff"/><path d="M143.14,150.9h0c-1.03-2.8-3.24-5-6.04-6.04h0c-.8-.3-.8-1.43,0-1.73h0c2.8-1.03,5-3.24,6.04-6.04h0c.3-.8,1.43-.8,1.73,0h0c1.03,2.8,3.24,5,6.04,6.04h0c.8.3.8,1.43,0,1.73h0c-2.8,1.03-5,3.24-6.04,6.04h0c-.3.8-1.43.8-1.73,0Z" fill="#fff"/><path d="M359.14,366.9h0c-1.03-2.8-3.24-5-6.04-6.04h0c-.8-.3-.8-1.43,0-1.73h0c2.8-1.03,5-3.24,6.04-6.04h0c.3-.8,1.43-.8,1.73,0h0c1.03,2.8,3.24,5,6.04,6.04h0c.8.3.8,1.43,0,1.73h0c-2.8,1.03-5,3.24-6.04,6.04h0c-.3.8-1.43.8-1.73,0Z" fill="#fff"/></g></svg>