<?xml version="1.0" encoding="UTF-8"?><svg id="uuid-12e6068f-b578-49f2-a7f3-89241380dfc3" xmlns="http://www.w3.org/2000/svg" viewBox="0 0 419.68 370.91"><g id="uuid-51495a8b-413a-43e8-a1af-4fadb49d67d0"><path d="M201.35,84.19c-24.86.82-39.84-4.72-41.63-5.76-4.21-2.42-5.65-5.83-4.56-10.5.63-2.71,1.85-5.14,3.29-7.44,2.6-4.21,5.83-7.91,9.46-11.31,9.35-8.66,19.73-15.81,30.76-22.04,17.48-9.87,35.89-17.66,55.28-22.97C263.12,1.62,272.47.07,282.05,0c5.42-.06,10.79.12,16.04,1.73,2.02.63,3.98,1.44,5.83,2.54,2.13,1.27,3.81,2.94,5.02,5.08,1.96,3.35,2.08,6.81.46,10.33-1.15,2.42-2.71,4.62-4.67,6.46-2.31,2.25-4.85,4.27-7.62,5.94-2.89,1.79-5.77,3.46-8.71,5.14-.58.35-1.21.58-1.9.75-.29.06-.87-.12-1.04-.35-.17-.23,0-.75.17-1.1.12-.35.46-.58.75-.81,3.58-3,6.87-6.29,9.92-9.81,1.62-1.85,3-3.87,4.1-6.06.46-.92.87-1.85,1.15-2.83.75-2.42.06-4.1-2.25-5.25-2.19-1.1-4.56-1.44-6.92-1.73-4.27-.58-8.48-.12-12.69.4-18.87,2.48-36.47,9.06-53.14,18-8.08,4.33-15.98,8.89-23.83,13.56-6.69,3.98-12.98,8.54-19.1,13.44-3.81,3.06-7.16,6.52-10.04,10.44-.23.35-.46.69-.75,1.15.69.23,1.21.4,1.79.58,4.73,1.38,9.58,1.9,14.48,2.25,12,.81,24,.63,36.01.35,5.71-.12,11.43-.29,17.14-.69,5.31-.35,10.56-1.1,15.81-1.73,6.75-.87,13.44-1.96,20.2-2.42,2.83-.17,5.71-.58,8.54-.81,5.08-.46,10.16-.29,15.23.06,6.52.46,12.93,1.38,19.27,3,4.56,1.15,8.94,2.94,13.04,5.25,3.98,2.19,7.39,5.08,10.16,8.66,3,3.81,4.85,8.14,4.96,12.98.12,3.52-.35,6.98-1.1,10.44-1.56,6.92-4.44,13.27-8.02,19.33-3.23,5.48-7.04,10.56-11.31,15.35-16.91,18.93-36.47,34.56-57.99,47.89-12.64,7.79-25.68,14.71-39.41,20.37-1.1.46-1.85,1.21-2.48,2.25-24.93,42.76-50.72,84.94-76.74,127-6.4,10.39-13.21,20.48-19.85,30.7-.52.75-1.15,1.5-1.85,2.19-.29.35-.75.58-1.15.75-1.1.4-2.13-.4-2.02-1.56,0-.46.23-.98.4-1.44,2.65-6.98,5.89-13.73,9.23-20.43,10.04-20.02,20.02-40.05,30.24-59.95,11.48-22.27,24.81-46.45,37.04-68.32h0c-.65.08-.95.2-3.22.97-.33.11-2.72.91-2.77.93-18.67,6.45-32.81,11.21-51.71,16.86-11.6,3.4-23.43,6.29-35.31,8.6-9.12,1.79-18.23,1.73-27.35-.12-2.6-.58-5.02-1.62-7.21-3.12-4.15-2.77-6.23-6.81-6.64-11.71-.35-3.98.58-7.79,1.85-11.54,2.37-6.98,5.89-13.33,10.5-19.04,7.33-9.12,15.29-17.66,23.95-25.56,2.08-1.9,4.39-3.58,6.58-5.31.52-.46,1.15-.75,1.79-1.04.52-.23.92.17.75.75-.06.29-.17.52-.35.75-.87,1.33-1.62,2.71-2.54,3.98-3.75,5.14-7.56,10.21-11.43,15.29-5.19,6.81-9.98,13.85-14.43,21.18-2.25,3.81-4.33,7.73-5.65,12-.58,1.9-.98,3.81-.98,5.83-.06,2.08.87,3.64,2.65,4.67,2.31,1.33,4.73,2.02,7.39,2.02,6.58,0,12.98-.81,19.39-2.08,14.02-2.83,27.64-7.21,41.08-12.06,22.79-8.25,45.18-17.66,67.05-28.16,1.44-.69,2.48-1.62,3.29-3,8.02-13.68,15.98-27.29,24.58-40.62,6.35-9.87,12.93-19.56,20.2-28.79,2.65-3.35,5.54-6.58,8.77-9.41.11-.09.21-.19.32-.28,2.08-1.78,3.44-.98,2.97,1.72h0c-.35,2.13-.81,4.27-1.38,6.35-1.79,6.12-4.44,11.83-7.16,17.54-6.07,12.85-13.62,26.68-20.57,39.19-.23.41.22.85.63.63,9.78-5.3,20.43-11.9,29.46-18.18,5.65-3.92,11.19-8.02,16.62-12.23,5.89-4.56,10.91-10.1,15.98-15.52,3.92-4.15,7.79-8.37,11.19-12.98,2.77-3.81,5.14-7.79,7.04-12.06,1.62-3.69,2.31-7.56,1.73-11.6-.29-2.02-1.15-3.69-2.54-5.14-1.5-1.5-3.29-2.6-5.31-3.4-4.5-1.85-9.23-2.94-14.02-3.58-6.12-.81-12.29-1.21-18.46-1.27-4.73,0-9.41.52-14.08,1.1-21.41,2.54-42.06,8.54-62.49,15.23-30.18,9.92-58.68,23.6-85.92,39.87-18.41,11.02-36.06,23.14-52.91,36.35-1.79,1.44-3.69,2.77-5.54,4.15-.58.46-1.21.81-2.02,1.04.12-.29.23-.69.4-.92.75-.98,1.44-2.02,2.31-2.94,20.37-21.75,43.62-40.05,68.67-56.09,19.4-12.38,40.67-23.91,62-33.07.58-.25.4-1.05-.23-1.1" fill="#fff"/><path d="M399.86,259.53l2.34,6.33c1.74,4.7,5.44,8.4,10.14,10.14l6.33,2.34c1.35.5,1.35,2.4,0,2.9l-6.33,2.34c-4.7,1.74-8.4,5.44-10.14,10.14l-2.34,6.33c-.5,1.35-2.4,1.35-2.9,0l-2.34-6.33c-1.74-4.7-5.44-8.4-10.14-10.14l-6.33-2.34c-1.35-.5-1.35-2.4,0-2.9l6.33-2.34c4.7-1.74,8.4-5.44,10.14-10.14l2.34-6.33c.5-1.35,2.4-1.35,2.9,0Z" fill="#fff"/><path d="M22.72,70.91l2.34,6.33c1.74,4.7,5.44,8.4,10.14,10.14l6.33,2.34c1.35.5,1.35,2.4,0,2.9l-6.33,2.34c-4.7,1.74-8.4,5.44-10.14,10.14l-2.34,6.33c-.5,1.35-2.4,1.35-2.9,0l-2.34-6.33c-1.74-4.7-5.44-8.4-10.14-10.14l-6.33-2.34c-1.35-.5-1.35-2.4,0-2.9l6.33-2.34c4.7-1.74,8.4-5.44,10.14-10.14l2.34-6.33c.5-1.35,2.4-1.35,2.9,0Z" fill="#fff"/><path d="M67.69,54.16l-1.17-3.17c-.87-2.35-2.72-4.2-5.07-5.07l-3.17-1.17c-.67-.25-.67-1.2,0-1.45l3.17-1.17c2.35-.87,4.2-2.72,5.07-5.07l1.17-3.17c.25-.67,1.2-.67,1.45,0l1.17,3.17c.87,2.35,2.72,4.2,5.07,5.07l3.17,1.17c.67.25.67,1.2,0,1.45l-3.17,1.17c-2.35.87-4.2,2.72-5.07,5.07l-1.17,3.17c-.25.67-1.2.67-1.45,0Z" fill="#fff"/><path d="M350.54,337.01l-1.17-3.17c-.87-2.35-2.72-4.2-5.07-5.07l-3.17-1.17c-.67-.25-.67-1.2,0-1.45l3.17-1.17c2.35-.87,4.2-2.72,5.07-5.07l1.17-3.17c.25-.67,1.2-.67,1.45,0l1.17,3.17c.87,2.35,2.72,4.2,5.07,5.07l3.17,1.17c.67.25.67,1.2,0,1.45l-3.17,1.17c-2.35.87-4.2,2.72-5.07,5.07l-1.17,3.17c-.25.67-1.2.67-1.45,0Z" fill="#fff"/></g></svg>